<?xml version="1.0" encoding="utf-8"?>
<!-- Generator: Adobe Illustrator 23.0.1, SVG Export Plug-In . SVG Version: 6.00 Build 0)  -->
<svg version="1.1" id="Capa_1" xmlns="http://www.w3.org/2000/svg" xmlns:xlink="http://www.w3.org/1999/xlink" x="0px" y="0px"
	 viewBox="0 0 17.1 17.1" style="enable-background:new 0 0 17.1 17.1;" xml:space="preserve">
<style type="text/css">
	.st0{fill:#FFFFFF;}
</style>
<g>
	<g>
		<path class="st0" d="M12.5,7.3l-1.7-0.2c0,0-0.1,0-0.1-0.1s0-0.1,0-0.1l0.3-1.7L9.5,5.9c0,0-0.1,0-0.1,0c0,0-0.1,0-0.1-0.1
			L8.5,4.5L7.8,5.9C7.8,6,7.8,6,7.7,6c0,0-0.1,0-0.1,0L6.1,5.2l0.3,1.6c0,0,0,0.1,0,0.1c0,0-0.1,0.1-0.1,0.1L4.6,7.3l1.2,1.1
			c0,0,0.1,0.1,0.1,0.1s0,0.1-0.1,0.1L4.6,9.9l1.6,0.2c0,0,0.1,0,0.1,0.1c0,0,0,0.1,0,0.1l-0.3,1.6l1.5-0.8c0,0,0.1,0,0.1,0
			c0,0,0,0,0.1,0c0,0,0.1,0,0.1,0.1l0.7,1.4l0.7-1.4c0,0,0.1-0.1,0.1-0.1c0,0,0.1,0,0.1,0l1.5,0.8l-0.3-1.7c0,0,0-0.1,0-0.1
			c0,0,0.1-0.1,0.1-0.1l1.6-0.3l-1.1-1.1c0,0-0.1-0.1-0.1-0.1s0-0.1,0.1-0.1L12.5,7.3z"/>
	</g>
</g>
</svg>
