<svg height="512pt" viewBox="0 0 512 512.00025" width="512pt" xmlns="http://www.w3.org/2000/svg"><path d="m256 60c-24.902344 0-45 20.097656-45 45v31c0 8.398438 6.597656 15 15 15h60c8.402344 0 15-6.601562 15-15v-31c0-24.902344-20.097656-45-45-45zm0 0" fill="#e63950"/><path d="m185.394531 55.605469-30-30c-5.859375-5.859375-5.859375-15.351563 0-21.210938 5.859375-5.859375 15.351563-5.859375 21.210938 0l30 30c5.859375 5.859375 5.859375 15.351563 0 21.210938s-15.351563 5.859375-21.210938 0zm0 0" fill="#ff9f00"/><path d="m305.394531 55.605469c-5.859375-5.859375-5.859375-15.351563 0-21.210938l30-30c5.859375-5.859375 15.351563-5.859375 21.210938 0s5.859375 15.351563 0 21.210938l-30 30c-5.859375 5.859375-15.351563 5.859375-21.210938 0zm0 0" fill="#ff7816"/><path d="m301 105v31c0 8.398438-6.597656 15-15 15h-30v-91c24.902344 0 45 20.097656 45 45zm0 0" fill="#cc2e43"/><path d="m437 256h-362l25.199219-96c2.699219-13.800781 15-24 29.402343-24h252.796876c14.402343 0 26.703124 10.199219 29.402343 24zm0 0" fill="#a8ebfa"/><path d="m437 256h-181v-120h126.398438c14.402343 0 26.703124 10.199219 29.402343 24zm0 0" fill="#76e2f8"/><path d="m451.398438 252.101562-24.898438-95.402343c-4.5-20.699219-22.800781-35.699219-44.101562-35.699219h-252.796876c-21.300781 0-39.902343 15.300781-43.800781 35.398438l-25.199219 95.703124c-2.5625 9.585938 4.257813 18.898438 14.398438 18.898438h362c10.140625 0 16.960938-9.3125 14.398438-18.898438zm-357.398438-11.101562 20.902344-78c1.5-6.898438 7.5-12 14.699218-12h252.800782c7.199218 0 13.199218 5.097656 14.699218 12 0 .300781 0 .601562.300782.898438l20.597656 77.101562zm0 0" fill="#384949"/><path d="m437 271h-181v-30h162l-20.601562-77.101562c-.296876-.296876-.296876-.597657-.296876-.898438-1.5-6.898438-7.5-12-14.703124-12h-126.398438v-30h126.398438c21.300781 0 39.601562 15 44.101562 35.699219l24.898438 95.402343c2.5625 9.585938-4.257813 18.898438-14.398438 18.898438zm0 0" fill="#293939"/><path d="m105 512c-24.8125 0-45-20.1875-45-45v-31c0-8.289062 6.710938-15 15-15h60c8.292969 0 15 6.710938 15 15v31c0 24.8125-20.1875 45-45 45zm0 0" fill="#384949"/><path d="m407 512c-24.8125 0-45-20.1875-45-45v-31c0-8.289062 6.710938-15 15-15h60c8.292969 0 15 6.710938 15 15v31c0 24.8125-20.1875 45-45 45zm0 0" fill="#293939"/><path d="m165 271c-3.835938 0-7.675781-1.464844-10.605469-4.394531-5.859375-5.859375-5.859375-15.351563 0-21.210938l60-60c5.859375-5.859375 15.351563-5.859375 21.210938 0s5.859375 15.351563 0 21.210938l-60 60c-2.929688 2.929687-6.765625 4.394531-10.605469 4.394531zm0 0" fill="#384949"/><path d="m275.394531 266.605469c-5.859375-5.859375-5.859375-15.351563 0-21.210938l60-60c5.859375-5.859375 15.351563-5.859375 21.210938 0s5.859375 15.351563 0 21.210938l-60 60c-5.859375 5.859375-15.351563 5.859375-21.210938 0zm0 0" fill="#293939"/><path d="m437 241h-20l-161 15-161-15h-20c-41.398438 0-75 33.601562-75 75v90c0 24.898438 20.097656 45 45 45h422c24.902344 0 45-20.101562 45-45v-90c0-41.398438-33.601562-75-75-75zm0 0" fill="#3e5959"/><path d="m512 316v90c0 24.898438-20.097656 45-45 45h-211v-195l162-15h19c41.398438 0 75 33.601562 75 75zm0 0" fill="#384949"/><path d="m94 241v15c0 41.398438 33.601562 75 75 75h174c41.398438 0 75-33.601562 75-75v-15zm0 0" fill="#a8d3d8"/><path d="m418 241v15c0 41.398438-33.601562 75-75 75h-87v-90zm0 0" fill="#8ebac5"/><path d="m332 376c0 8.398438-6.597656 15-15 15h-122c-8.402344 0-15-6.601562-15-15 0-8.402344 6.597656-15 15-15h122c8.402344 0 15 6.597656 15 15zm0 0" fill="#a8d3d8"/><path d="m363.582031 382.710938c-3.707031-7.414063-.703125-16.421876 6.710938-20.128907l60-30c7.410156-3.660156 16.417969-.6875 20.125 6.710938 3.707031 7.410156.703125 16.417969-6.707031 20.125l-60 30c-7.488282 3.71875-16.441407.640625-20.128907-6.707031zm0 0" fill="#c6e2e7"/><path d="m128.292969 389.417969-60-30c-7.414063-3.707031-10.417969-12.714844-6.710938-20.125 3.722657-7.398438 12.699219-10.371094 20.128907-6.710938l60 30c7.410156 3.707031 10.414062 12.714844 6.707031 20.128907-3.6875 7.347656-12.640625 10.425781-20.125 6.707031zm0 0" fill="#deecf1"/><path d="m332 376c0 8.398438-6.597656 15-15 15h-61v-30h61c8.402344 0 15 6.597656 15 15zm0 0" fill="#8ebac5"/></svg>