<?xml version="1.0" encoding="utf-8"?>
<!-- Generator: Adobe Illustrator 23.0.1, SVG Export Plug-In . SVG Version: 6.00 Build 0)  -->
<svg version="1.1" id="Layer_1" xmlns="http://www.w3.org/2000/svg" xmlns:xlink="http://www.w3.org/1999/xlink" x="0px" y="0px"
	 viewBox="0 0 2375.9 984.6" style="enable-background:new 0 0 2375.9 984.6;" xml:space="preserve">
<style type="text/css">
	.st0{fill:#82AA40;}
	.st1{fill:#454747;}
	.st2{fill:#929292;}
	.st3{fill:#D4EDEC;}
	.st4{fill:#EBA71F;}
	.st5{fill:#FFD412;}
</style>
<image style="overflow:visible;enable-background:new    ;" width="612" height="334" xlink:href="438840E81517A51C.jpeg"  transform="matrix(3.0543 0 0 3.0543 14.0967 -36.4302)">
</image>
<polygon class="st0" points="2534.5,983.7 -349.2,983.7 -255.5,539.1 2661.8,539.1 "/>
<polygon class="st1" points="14.1,999.1 871.1,709.9 1028.4,709.9 2002.3,1037.4 "/>
<polygon class="st2" points="124.5,1006.8 887.2,706.2 209.8,997.7 "/>
<polygon class="st2" points="1883.3,1054.3 994,699.5 1828.5,1062.2 "/>
<rect x="946.1" y="712.9" class="st2" width="5.2" height="4.9"/>
<polygon class="st2" points="944.3,720.4 953.6,720.4 956.1,738.6 942.1,738.6 "/>
<polygon class="st2" points="941.1,744.2 957.3,744.2 962,773.4 937.2,773.4 "/>
<polygon class="st2" points="937.2,782.2 962.9,782.2 972.3,866.5 923.2,866.5 "/>
<polygon class="st2" points="919.9,909.8 975.4,909.8 983.9,995.6 907.6,995.6 "/>
<polygon class="st3" points="-33.7,709.9 2517.6,709.9 2483.7,-124.4 -67.2,-146.4 "/>
<polygon class="st4" points="1153.8,90.6 1132.7,128.5 1114,104.4 1106.2,137.2 1079.7,121.3 1083.9,150.2 1039.3,144.8 
	1072.4,173.1 1039.3,190.6 1069.4,203.2 1061,227.3 1079.7,218.3 1074.8,253.8 1106.2,244.2 1117,265.9 1126.7,246.6 1135.7,275.5 
	1142.9,244.2 1170,256.2 1161,233.3 1208,233.3 1179.1,205 1225.2,199 1185.1,176.7 1212.8,149 1179.1,150.2 1184.5,126.7 
	1153.8,134.5 "/>
<circle class="st5" cx="1129.4" cy="186.9" r="49.7"/>
</svg>
