<?xml version="1.0" encoding="iso-8859-1"?>
<!-- Generator: Adobe Illustrator 19.0.0, SVG Export Plug-In . SVG Version: 6.00 Build 0)  -->
<svg version="1.1" id="Layer_1" xmlns="http://www.w3.org/2000/svg" xmlns:xlink="http://www.w3.org/1999/xlink" x="0px" y="0px"
	 viewBox="0 0 512 512" style="enable-background:new 0 0 512 512;" xml:space="preserve">
<polygon style="fill:#FFFFFF;" points="207.964,167.934 167.934,87.875 207.964,7.814 304.035,7.814 344.066,87.875 
	304.035,167.934 "/>
<path style="fill:#1D1D1B;" d="M308.865,175.747h-105.73l-43.937-87.873L203.135,0h105.73l43.937,87.875L308.865,175.747z
	 M212.793,160.12h86.414l36.123-72.246l-36.123-72.246h-86.414l-36.123,72.247L212.793,160.12z"/>
<polygon style="fill:#ED7149;" points="221.065,146.1 191.952,87.875 221.065,29.648 290.935,29.648 320.048,87.875 290.935,146.1 
	"/>
<rect x="239.983" y="376.087" style="fill:#F9B233;" width="32.024" height="24.014"/>
<rect x="239.983" y="400.111" style="fill:#CBBBA0;" width="32.024" height="104.078"/>
<g>
	<path style="fill:#1D1D1B;" d="M279.825,496.373V392.295h-47.652v104.078h-16.204V512h80.06v-15.627H279.825z M247.801,407.922
		h16.397v88.451h-16.397V407.922z"/>
	<path style="fill:#1D1D1B;" d="M308.865,175.747l43.937-87.873L308.865,0h-105.73l-43.937,87.875l43.937,87.873h45.051v192.53
		h-8.199v15.627h32.025v-15.627h-8.198V175.747H308.865z M176.669,87.875l36.123-72.247h86.414l36.123,72.247l-36.123,72.246
		h-86.414L176.669,87.875z"/>
	<path style="fill:#1D1D1B;" d="M295.764,153.912h-79.528l-33.02-66.039l33.02-66.04h79.528l33.019,66.04L295.764,153.912z
		 M225.893,138.285h60.212l25.206-50.412l-25.206-50.413h-60.212l-25.206,50.413L225.893,138.285z"/>
</g>
<rect x="223.981" y="80.061" style="fill:#FFFFFF;" width="64.051" height="15.627"/>
<g>
</g>
<g>
</g>
<g>
</g>
<g>
</g>
<g>
</g>
<g>
</g>
<g>
</g>
<g>
</g>
<g>
</g>
<g>
</g>
<g>
</g>
<g>
</g>
<g>
</g>
<g>
</g>
<g>
</g>
</svg>
